<?xml version="1.0" encoding="UTF-8" standalone="no"?>
<!DOCTYPE svg PUBLIC "-//W3C//DTD SVG 1.1//EN"
 "http://www.w3.org/Graphics/SVG/1.1/DTD/svg11.dtd">
<!-- Generated by graphviz version 2.40.1 (20161225.0304)
 -->
<!-- Title: G Pages: 1 -->
<svg width="1008pt" height="1128pt"
 viewBox="0.00 0.00 1008.09 1128.00" xmlns="http://www.w3.org/2000/svg" xmlns:xlink="http://www.w3.org/1999/xlink">
<g id="graph0" class="graph" transform="scale(1 1) rotate(0) translate(4 1124)">
<title>G</title>
<polygon fill="#ffffff" stroke="transparent" points="-4,4 -4,-1124 1004.093,-1124 1004.093,4 -4,4"/>
<!-- async_launcher -->
<g id="node1" class="node">
<title>async_launcher</title>
<ellipse fill="#a4a446" stroke="#000000" cx="332.093" cy="-90" rx="50.0727" ry="18"/>
<text text-anchor="middle" x="332.093" y="-87.5" font-family="Helvetica,sans-Serif" font-size="10.00" fill="#000000">async_launcher</text>
</g>
<!-- async_timeout -->
<g id="node2" class="node">
<title>async_timeout</title>
<ellipse fill="#b6ce3b" stroke="#000000" cx="47.093" cy="-958" rx="47.1863" ry="18"/>
<text text-anchor="middle" x="47.093" y="-955.5" font-family="Helvetica,sans-Serif" font-size="10.00" fill="#000000">async_timeout</text>
</g>
<!-- aiohttp -->
<g id="node18" class="node">
<title>aiohttp</title>
<polygon fill="#ac7a49" stroke="#000000" points="359.093,-867 356.093,-871 335.093,-871 332.093,-867 305.093,-867 305.093,-831 359.093,-831 359.093,-867"/>
<text text-anchor="middle" x="332.093" y="-846.5" font-family="Helvetica,sans-Serif" font-size="10.00" fill="#000000">aiohttp</text>
</g>
<!-- async_timeout&#45;&gt;aiohttp -->
<g id="edge7" class="edge">
<title>async_timeout&#45;&gt;aiohttp</title>
<path fill="none" stroke="#000000" d="M84.3419,-946.9521C130.8823,-932.9035 204.6551,-909.7192 206.093,-903.5"/>
<path fill="none" stroke="#000000" d="M206.093,-903.5C210.4176,-884.7957 259.1958,-868.05 294.7668,-858.2048"/>
<polygon fill="#b6ce3b" stroke="#000000" points="296.1084,-861.4687 304.8591,-855.4958 294.2936,-854.708 296.1084,-861.4687"/>
</g>
<!-- certifi -->
<g id="node3" class="node">
<title>certifi</title>
<ellipse fill="#85b653" stroke="#000000" cx="648.093" cy="-487" rx="27" ry="18"/>
<text text-anchor="middle" x="648.093" y="-484.5" font-family="Helvetica,sans-Serif" font-size="10.00" fill="#000000">certifi</text>
</g>
<!-- requests -->
<g id="node34" class="node">
<title>requests</title>
<polygon fill="#4312a5" stroke="#000000" points="509.093,-361 506.093,-365 485.093,-365 482.093,-361 455.093,-361 455.093,-325 509.093,-325 509.093,-361"/>
<text text-anchor="middle" x="482.093" y="-340.5" font-family="Helvetica,sans-Serif" font-size="10.00" fill="#ffffff">requests</text>
</g>
<!-- certifi&#45;&gt;requests -->
<g id="edge9" class="edge">
<title>certifi&#45;&gt;requests</title>
<path fill="none" stroke="#000000" d="M634.0033,-471.3448C621.9457,-457.3484 604.7398,-435.8807 593.093,-415"/>
</g>
<!-- deprecated -->
<g id="node4" class="node">
<title>deprecated</title>
<ellipse fill="#40c040" stroke="#000000" cx="603.093" cy="-343" rx="38.0276" ry="18"/>
<text text-anchor="middle" x="603.093" y="-340.5" font-family="Helvetica,sans-Serif" font-size="10.00" fill="#000000">deprecated</text>
</g>
<!-- github -->
<g id="node29" class="node">
<title>github</title>
<polygon fill="#499bac" stroke="#000000" points="619.093,-252 616.093,-256 595.093,-256 592.093,-252 565.093,-252 565.093,-216 619.093,-216 619.093,-252"/>
<text text-anchor="middle" x="592.093" y="-231.5" font-family="Helvetica,sans-Serif" font-size="10.00" fill="#000000">github</text>
</g>
<!-- deprecated&#45;&gt;github -->
<g id="edge15" class="edge">
<title>deprecated&#45;&gt;github</title>
<path fill="none" stroke="#000000" d="M631.8217,-331.0249C658.0569,-319.1563 691.9406,-300.9897 686.093,-288.5"/>
<path fill="none" stroke="#000000" d="M686.093,-288.5C675.411,-265.6846 650.293,-251.8418 628.7076,-243.8191"/>
<polygon fill="#40c040" stroke="#000000" points="629.6977,-240.4587 619.1031,-240.5313 627.4305,-247.0814 629.6977,-240.4587"/>
</g>
<!-- differ -->
<g id="node5" class="node">
<title>differ</title>
<ellipse fill="#4cb35d" stroke="#000000" cx="427.093" cy="-90" rx="27" ry="18"/>
<text text-anchor="middle" x="427.093" y="-87.5" font-family="Helvetica,sans-Serif" font-size="10.00" fill="#000000">differ</text>
</g>
<!-- schedule -->
<g id="node10" class="node">
<title>schedule</title>
<ellipse fill="#663d8f" stroke="#000000" cx="482.093" cy="-18" rx="32.9303" ry="18"/>
<text text-anchor="middle" x="482.093" y="-15.5" font-family="Helvetica,sans-Serif" font-size="10.00" fill="#ffffff">schedule</text>
</g>
<!-- differ&#45;&gt;schedule -->
<g id="edge16" class="edge">
<title>differ&#45;&gt;schedule</title>
<path fill="none" stroke="#000000" d="M439.5734,-73.6621C446.5064,-64.5861 455.2768,-53.1049 463.0489,-42.9306"/>
<polygon fill="#4cb35d" stroke="#000000" points="465.9913,-44.8443 469.2804,-34.7729 460.4286,-40.595 465.9913,-44.8443"/>
</g>
<!-- idna_ssl -->
<g id="node6" class="node">
<title>idna_ssl</title>
<ellipse fill="#4c7fb3" stroke="#000000" cx="455.093" cy="-958" rx="31.3996" ry="18"/>
<text text-anchor="middle" x="455.093" y="-955.5" font-family="Helvetica,sans-Serif" font-size="10.00" fill="#ffffff">idna_ssl</text>
</g>
<!-- idna_ssl&#45;&gt;aiohttp -->
<g id="edge30" class="edge">
<title>idna_ssl&#45;&gt;aiohttp</title>
<path fill="none" stroke="#000000" d="M431.356,-946.1503C426.0951,-943.8556 420.4801,-941.6539 415.093,-940 370.0219,-926.1627 195.4723,-949.4356 206.093,-903.5"/>
</g>
<!-- _imp -->
<g id="node7" class="node">
<title>_imp</title>
<ellipse fill="#b67453" stroke="#000000" cx="885.093" cy="-487" rx="27" ry="18"/>
<text text-anchor="middle" x="885.093" y="-484.5" font-family="Helvetica,sans-Serif" font-size="10.00" fill="#000000">_imp</text>
</g>
<!-- pkgresources -->
<g id="node33" class="node">
<title>pkgresources</title>
<polygon fill="#2020b6" stroke="#000000" points="927.593,-433 924.593,-437 903.593,-437 900.593,-433 852.593,-433 852.593,-397 927.593,-397 927.593,-433"/>
<text text-anchor="middle" x="890.093" y="-412.5" font-family="Helvetica,sans-Serif" font-size="10.00" fill="#ffffff">pkgresources</text>
</g>
<!-- _imp&#45;&gt;pkgresources -->
<g id="edge3" class="edge">
<title>_imp&#45;&gt;pkgresources</title>
<path fill="none" stroke="#000000" d="M886.3547,-468.8314C886.8895,-461.131 887.5254,-451.9743 888.1197,-443.4166"/>
<polygon fill="#b67453" stroke="#000000" points="891.6131,-443.6317 888.8143,-433.4133 884.6299,-443.1467 891.6131,-443.6317"/>
</g>
<!-- __main__ -->
<g id="node8" class="node">
<title>__main__</title>
<ellipse fill="#b35d4c" stroke="#000000" cx="965.093" cy="-487" rx="34.9638" ry="18"/>
<text text-anchor="middle" x="965.093" y="-484.5" font-family="Helvetica,sans-Serif" font-size="10.00" fill="#ffffff">__main__</text>
</g>
<!-- __main__&#45;&gt;pkgresources -->
<g id="edge2" class="edge">
<title>__main__&#45;&gt;pkgresources</title>
<path fill="none" stroke="#000000" d="M948.4481,-471.0209C939.0719,-462.0197 927.1452,-450.5701 916.521,-440.3708"/>
<polygon fill="#b35d4c" stroke="#000000" points="918.708,-437.6186 909.0702,-433.2181 913.8602,-442.6683 918.708,-437.6186"/>
</g>
<!-- pytz -->
<g id="node9" class="node">
<title>pytz</title>
<ellipse fill="#4124d0" stroke="#000000" cx="918.093" cy="-343" rx="27" ry="18"/>
<text text-anchor="middle" x="918.093" y="-340.5" font-family="Helvetica,sans-Serif" font-size="10.00" fill="#ffffff">pytz</text>
</g>
<!-- apscheduler -->
<g id="node19" class="node">
<title>apscheduler</title>
<polygon fill="#c09540" stroke="#000000" points="914.593,-252 911.593,-256 890.593,-256 887.593,-252 845.593,-252 845.593,-216 914.593,-216 914.593,-252"/>
<text text-anchor="middle" x="880.093" y="-231.5" font-family="Helvetica,sans-Serif" font-size="10.00" fill="#000000">apscheduler</text>
</g>
<!-- pytz&#45;&gt;apscheduler -->
<g id="edge36" class="edge">
<title>pytz&#45;&gt;apscheduler</title>
<path fill="none" stroke="#000000" d="M920.7726,-324.9168C921.7225,-314.1055 921.7802,-300.2347 918.093,-288.5"/>
</g>
<!-- syncer -->
<g id="node14" class="node">
<title>syncer</title>
<ellipse fill="#a1358f" stroke="#000000" cx="427.093" cy="-162" rx="27.1572" ry="18"/>
<text text-anchor="middle" x="427.093" y="-159.5" font-family="Helvetica,sans-Serif" font-size="10.00" fill="#ffffff">syncer</text>
</g>
<!-- schedule&#45;&gt;syncer -->
<g id="edge40" class="edge">
<title>schedule&#45;&gt;syncer</title>
<path fill="none" stroke="#000000" d="M480.3025,-36.1917C478.0043,-54.8125 473.0586,-84.2992 463.093,-108 458.7695,-118.2827 452.406,-128.6881 446.2271,-137.5836"/>
<polygon fill="#663d8f" stroke="#000000" points="443.2238,-135.7635 440.192,-145.9153 448.8928,-139.8699 443.2238,-135.7635"/>
</g>
<!-- simplejson -->
<g id="node11" class="node">
<title>simplejson</title>
<ellipse fill="#9540c0" stroke="#000000" cx="528.093" cy="-487" rx="37.1717" ry="18"/>
<text text-anchor="middle" x="528.093" y="-484.5" font-family="Helvetica,sans-Serif" font-size="10.00" fill="#ffffff">simplejson</text>
</g>
<!-- simplejson&#45;&gt;requests -->
<g id="edge41" class="edge">
<title>simplejson&#45;&gt;requests</title>
<path fill="none" stroke="#000000" d="M554.1967,-474.1461C577.5464,-460.7736 606.2184,-438.5314 593.093,-415"/>
</g>
<!-- six -->
<g id="node12" class="node">
<title>six</title>
<ellipse fill="#d210f9" stroke="#000000" cx="824.093" cy="-1030" rx="27" ry="18"/>
<text text-anchor="middle" x="824.093" y="-1027.5" font-family="Helvetica,sans-Serif" font-size="10.00" fill="#ffffff">six</text>
</g>
<!-- OpenSSL -->
<g id="node17" class="node">
<title>OpenSSL</title>
<polygon fill="#993333" stroke="#000000" points="756.593,-723 753.593,-727 732.593,-727 729.593,-723 697.593,-723 697.593,-687 756.593,-687 756.593,-723"/>
<text text-anchor="middle" x="727.093" y="-702.5" font-family="Helvetica,sans-Serif" font-size="10.00" fill="#ffffff">OpenSSL</text>
</g>
<!-- six&#45;&gt;OpenSSL -->
<g id="edge42" class="edge">
<title>six&#45;&gt;OpenSSL</title>
<path fill="none" stroke="#000000" d="M824.093,-903.5C788.4036,-860.0581 840.5142,-830.7706 824.093,-777"/>
<path fill="none" stroke="#000000" d="M824.093,-777C817.2417,-749.132 790.0011,-730.4848 766.1255,-719.1633"/>
<polygon fill="#d210f9" stroke="#000000" points="767.4102,-715.9041 756.8509,-715.0375 764.5651,-722.2999 767.4102,-715.9041"/>
</g>
<!-- six&#45;&gt;apscheduler -->
<g id="edge43" class="edge">
<title>six&#45;&gt;apscheduler</title>
<path fill="none" stroke="#000000" d="M880.093,-288.5C881.2218,-280.0595 881.5569,-270.8178 881.5169,-262.3813"/>
<polygon fill="#d210f9" stroke="#000000" points="885.0132,-262.1685 881.2971,-252.2468 878.0149,-262.3204 885.0132,-262.1685"/>
</g>
<!-- cryptography -->
<g id="node23" class="node">
<title>cryptography</title>
<polygon fill="#1c9503" stroke="#000000" points="622.593,-867 619.593,-871 598.593,-871 595.593,-867 549.593,-867 549.593,-831 622.593,-831 622.593,-867"/>
<text text-anchor="middle" x="586.093" y="-846.5" font-family="Helvetica,sans-Serif" font-size="10.00" fill="#ffffff">cryptography</text>
</g>
<!-- six&#45;&gt;cryptography -->
<g id="edge44" class="edge">
<title>six&#45;&gt;cryptography</title>
<path fill="none" stroke="#000000" d="M829.7392,-1011.9686C836.7722,-985.7921 845.4474,-936.7673 824.093,-903.5"/>
<path fill="none" stroke="#000000" d="M824.093,-903.5C800.1969,-874.4131 694.8963,-859.4532 632.6503,-853.0189"/>
<polygon fill="#d210f9" stroke="#000000" points="632.9747,-849.5339 622.6763,-852.0226 632.2789,-856.4993 632.9747,-849.5339"/>
</g>
<!-- docker -->
<g id="node25" class="node">
<title>docker</title>
<polygon fill="#4cb380" stroke="#000000" points="526.093,-180 523.093,-184 502.093,-184 499.093,-180 472.093,-180 472.093,-144 526.093,-144 526.093,-180"/>
<text text-anchor="middle" x="499.093" y="-159.5" font-family="Helvetica,sans-Serif" font-size="10.00" fill="#000000">docker</text>
</g>
<!-- six&#45;&gt;docker -->
<g id="edge45" class="edge">
<title>six&#45;&gt;docker</title>
<path fill="none" stroke="#000000" d="M824.093,-777C810.6705,-722.4035 824.093,-706.7222 824.093,-650.5 824.093,-650.5 824.093,-650.5 824.093,-487 824.093,-446.0242 833.1825,-436.4965 844.093,-397 857.6213,-348.0269 873.3583,-338.859 880.093,-288.5"/>
<path fill="none" stroke="#000000" d="M880.093,-288.5C875.817,-252.815 631.0845,-192.5107 536.1588,-170.4271"/>
<polygon fill="#d210f9" stroke="#000000" points="536.667,-166.9523 526.1354,-168.108 535.089,-173.7721 536.667,-166.9523"/>
</g>
<!-- smmap -->
<g id="node13" class="node">
<title>smmap</title>
<ellipse fill="#b653b6" stroke="#000000" cx="425.093" cy="-559" rx="28.6898" ry="18"/>
<text text-anchor="middle" x="425.093" y="-556.5" font-family="Helvetica,sans-Serif" font-size="10.00" fill="#ffffff">smmap</text>
</g>
<!-- gitdb -->
<g id="node28" class="node">
<title>gitdb</title>
<polygon fill="#05dbdb" stroke="#000000" points="452.093,-433 449.093,-437 428.093,-437 425.093,-433 398.093,-433 398.093,-397 452.093,-397 452.093,-433"/>
<text text-anchor="middle" x="425.093" y="-412.5" font-family="Helvetica,sans-Serif" font-size="10.00" fill="#000000">gitdb</text>
</g>
<!-- smmap&#45;&gt;gitdb -->
<g id="edge46" class="edge">
<title>smmap&#45;&gt;gitdb</title>
<path fill="none" stroke="#000000" d="M425.093,-540.7623C425.093,-516.201 425.093,-472.2474 425.093,-443.3541"/>
<polygon fill="#b653b6" stroke="#000000" points="428.5931,-443.0896 425.093,-433.0896 421.5931,-443.0897 428.5931,-443.0896"/>
</g>
<!-- syncer&#45;&gt;async_launcher -->
<g id="edge47" class="edge">
<title>syncer&#45;&gt;async_launcher</title>
<path fill="none" stroke="#000000" d="M409.2243,-148.4574C395.982,-138.4211 377.624,-124.5077 362.14,-112.7725"/>
<polygon fill="#a1358f" stroke="#000000" points="363.968,-109.7663 353.8842,-106.5154 359.7399,-115.3451 363.968,-109.7663"/>
</g>
<!-- syncer&#45;&gt;differ -->
<g id="edge48" class="edge">
<title>syncer&#45;&gt;differ</title>
<path fill="none" stroke="#000000" d="M427.093,-143.8314C427.093,-136.131 427.093,-126.9743 427.093,-118.4166"/>
<polygon fill="#a1358f" stroke="#000000" points="430.5931,-118.4132 427.093,-108.4133 423.5931,-118.4133 430.5931,-118.4132"/>
</g>
<!-- typing_extensions -->
<g id="node15" class="node">
<title>typing_extensions</title>
<ellipse fill="#ce3b9d" stroke="#000000" cx="206.093" cy="-958" rx="55.8461" ry="18"/>
<text text-anchor="middle" x="206.093" y="-955.5" font-family="Helvetica,sans-Serif" font-size="10.00" fill="#ffffff">typing_extensions</text>
</g>
<!-- typing_extensions&#45;&gt;aiohttp -->
<g id="edge49" class="edge">
<title>typing_extensions&#45;&gt;aiohttp</title>
<path fill="none" stroke="#000000" d="M204.0469,-939.5999C203.3648,-928.9248 203.3648,-915.2998 206.093,-903.5"/>
</g>
<!-- tzlocal -->
<g id="node16" class="node">
<title>tzlocal</title>
<ellipse fill="#c04080" stroke="#000000" cx="973.093" cy="-415" rx="27" ry="18"/>
<text text-anchor="middle" x="973.093" y="-412.5" font-family="Helvetica,sans-Serif" font-size="10.00" fill="#ffffff">tzlocal</text>
</g>
<!-- tzlocal&#45;&gt;apscheduler -->
<g id="edge50" class="edge">
<title>tzlocal&#45;&gt;apscheduler</title>
<path fill="none" stroke="#000000" d="M972.2441,-396.7246C970.6978,-377.7743 966.3431,-347.7863 954.093,-325 943.3039,-304.9312 925.9747,-309.8785 918.093,-288.5"/>
</g>
<!-- urllib3 -->
<g id="node35" class="node">
<title>urllib3</title>
<polygon fill="#8f3d58" stroke="#000000" points="761.093,-577 758.093,-581 737.093,-581 734.093,-577 707.093,-577 707.093,-541 761.093,-541 761.093,-577"/>
<text text-anchor="middle" x="734.093" y="-556.5" font-family="Helvetica,sans-Serif" font-size="10.00" fill="#ffffff">urllib3</text>
</g>
<!-- OpenSSL&#45;&gt;urllib3 -->
<g id="edge1" class="edge">
<title>OpenSSL&#45;&gt;urllib3</title>
<path fill="none" stroke="#000000" d="M724.8942,-686.5632C724.1613,-675.8759 724.1613,-662.2509 727.093,-650.5"/>
</g>
<!-- aiohttp&#45;&gt;async_launcher -->
<g id="edge4" class="edge">
<title>aiohttp&#45;&gt;async_launcher</title>
<path fill="none" stroke="#000000" d="M332.093,-830.8146C332.093,-803.4983 332.093,-750.25 332.093,-705 332.093,-705 332.093,-705 332.093,-234 332.093,-193.876 332.093,-147.4631 332.093,-118.4177"/>
<polygon fill="#ac7a49" stroke="#000000" points="335.5931,-118.1853 332.093,-108.1854 328.5931,-118.1854 335.5931,-118.1853"/>
</g>
<!-- apscheduler&#45;&gt;schedule -->
<g id="edge5" class="edge">
<title>apscheduler&#45;&gt;schedule</title>
<path fill="none" stroke="#000000" d="M857.9184,-215.9715C844.1962,-202.689 829.167,-183.2921 829.093,-162"/>
</g>
<!-- asn1crypto -->
<g id="node20" class="node">
<title>asn1crypto</title>
<polygon fill="#dbbe2f" stroke="#000000" points="656.593,-1120 653.593,-1124 632.593,-1124 629.593,-1120 591.593,-1120 591.593,-1084 656.593,-1084 656.593,-1120"/>
<text text-anchor="middle" x="624.093" y="-1099.5" font-family="Helvetica,sans-Serif" font-size="10.00" fill="#000000">asn1crypto</text>
</g>
<!-- asn1crypto&#45;&gt;cryptography -->
<g id="edge6" class="edge">
<title>asn1crypto&#45;&gt;cryptography</title>
<path fill="none" stroke="#000000" d="M622.7147,-1083.7662C619.8747,-1048.5875 612.5693,-968.993 600.093,-903 598.4991,-894.5691 596.3317,-885.5063 594.1787,-877.2587"/>
<polygon fill="#dbbe2f" stroke="#000000" points="597.4905,-876.0975 591.5034,-867.3566 590.7328,-877.9233 597.4905,-876.0975"/>
</g>
<!-- attr -->
<g id="node21" class="node">
<title>attr</title>
<polygon fill="#9dce3b" stroke="#000000" points="406.093,-976 403.093,-980 382.093,-980 379.093,-976 352.093,-976 352.093,-940 406.093,-940 406.093,-976"/>
<text text-anchor="middle" x="379.093" y="-955.5" font-family="Helvetica,sans-Serif" font-size="10.00" fill="#000000">attr</text>
</g>
<!-- attr&#45;&gt;aiohttp -->
<g id="edge8" class="edge">
<title>attr&#45;&gt;aiohttp</title>
<path fill="none" stroke="#000000" d="M351.8335,-943.6527C348.9188,-942.3352 345.9684,-941.0889 343.093,-940 284.1643,-917.6836 191.8983,-964.8932 206.093,-903.5"/>
</g>
<!-- chardet -->
<g id="node22" class="node">
<title>chardet</title>
<polygon fill="#66cc33" stroke="#000000" points="558.093,-976 555.093,-980 534.093,-980 531.093,-976 504.093,-976 504.093,-940 558.093,-940 558.093,-976"/>
<text text-anchor="middle" x="531.093" y="-955.5" font-family="Helvetica,sans-Serif" font-size="10.00" fill="#000000">chardet</text>
</g>
<!-- chardet&#45;&gt;aiohttp -->
<g id="edge10" class="edge">
<title>chardet&#45;&gt;aiohttp</title>
<path fill="none" stroke="#000000" d="M516.8921,-939.8996C507.7937,-928.8254 495.4171,-914.6851 483.093,-903.5"/>
<path fill="none" stroke="#000000" d="M483.093,-903.5C451.2483,-874.5985 402.9345,-860.7376 369.5735,-854.2859"/>
<polygon fill="#66cc33" stroke="#000000" points="369.7686,-850.765 359.3073,-852.4419 368.531,-857.6547 369.7686,-850.765"/>
</g>
<!-- chardet&#45;&gt;requests -->
<g id="edge11" class="edge">
<title>chardet&#45;&gt;requests</title>
<path fill="none" stroke="#000000" d="M483.093,-903.5C441.4606,-865.7154 490.3258,-832.755 483.093,-777"/>
<path fill="none" stroke="#000000" d="M483.093,-777C478.2667,-720.9853 483.093,-706.7222 483.093,-650.5 483.093,-650.5 483.093,-650.5 483.093,-613.5 483.093,-549.2762 448.0322,-523.4477 482.093,-469 511.1886,-422.4895 620.4794,-462.537 593.093,-415"/>
<path fill="none" stroke="#000000" d="M593.093,-415C576.3975,-387.013 544.1151,-367.9329 518.6501,-356.4832"/>
<polygon fill="#66cc33" stroke="#000000" points="519.8412,-353.1859 509.2709,-352.4659 517.0851,-359.6205 519.8412,-353.1859"/>
</g>
<!-- cryptography&#45;&gt;OpenSSL -->
<g id="edge12" class="edge">
<title>cryptography&#45;&gt;OpenSSL</title>
<path fill="none" stroke="#000000" d="M669.093,-777C680.2853,-761.3085 693.7387,-744.4964 704.8696,-731.0673"/>
<polygon fill="#1c9503" stroke="#000000" points="707.7316,-733.1008 711.4591,-723.1833 702.3605,-728.6116 707.7316,-733.1008"/>
</g>
<!-- cryptography&#45;&gt;requests -->
<g id="edge13" class="edge">
<title>cryptography&#45;&gt;requests</title>
<path fill="none" stroke="#000000" d="M587.5434,-830.8284C589.5938,-803.5296 593.093,-750.3034 593.093,-705 593.093,-705 593.093,-705 593.093,-559 593.093,-495 624.2691,-470.8933 593.093,-415"/>
</g>
<!-- cryptography&#45;&gt;urllib3 -->
<g id="edge14" class="edge">
<title>cryptography&#45;&gt;urllib3</title>
<path fill="none" stroke="#000000" d="M612.9962,-830.8705C630.882,-817.6797 653.8066,-798.4317 669.093,-777"/>
<path fill="none" stroke="#000000" d="M669.093,-777C687.675,-750.948 652.7161,-732.4918 669.093,-705"/>
</g>
<!-- dns -->
<g id="node24" class="node">
<title>dns</title>
<polygon fill="#10f95e" stroke="#000000" points="565.093,-795 562.093,-799 541.093,-799 538.093,-795 511.093,-795 511.093,-759 565.093,-759 565.093,-795"/>
<text text-anchor="middle" x="538.093" y="-774.5" font-family="Helvetica,sans-Serif" font-size="10.00" fill="#000000">dns</text>
</g>
<!-- etcd -->
<g id="node26" class="node">
<title>etcd</title>
<polygon fill="#20b684" stroke="#000000" points="713.093,-433 710.093,-437 689.093,-437 686.093,-433 659.093,-433 659.093,-397 713.093,-397 713.093,-433"/>
<text text-anchor="middle" x="686.093" y="-412.5" font-family="Helvetica,sans-Serif" font-size="10.00" fill="#000000">etcd</text>
</g>
<!-- dns&#45;&gt;etcd -->
<g id="edge17" class="edge">
<title>dns&#45;&gt;etcd</title>
<path fill="none" stroke="#000000" d="M551.8466,-758.843C582.6736,-716.9046 656.7355,-608.9171 684.093,-505 689.39,-484.8796 689.7187,-461.3474 688.814,-443.3928"/>
<polygon fill="#10f95e" stroke="#000000" points="692.2973,-443.0224 688.146,-433.2747 685.3125,-443.4836 692.2973,-443.0224"/>
</g>
<!-- docker&#45;&gt;schedule -->
<g id="edge18" class="edge">
<title>docker&#45;&gt;schedule</title>
<path fill="none" stroke="#000000" d="M526.1119,-158.9927C605.4983,-149.7974 832.2905,-120.8034 829.093,-90"/>
<path fill="none" stroke="#000000" d="M829.093,-90C825.9238,-59.4688 616.8364,-32.7856 524.7945,-22.5039"/>
<polygon fill="#4cb380" stroke="#000000" points="525.0164,-19.0073 514.6927,-21.389 524.2484,-25.965 525.0164,-19.0073"/>
</g>
<!-- etcd&#45;&gt;schedule -->
<g id="edge19" class="edge">
<title>etcd&#45;&gt;schedule</title>
<path fill="none" stroke="#000000" d="M705.4336,-396.7175C744.5706,-357.6357 829.4382,-261.3943 829.093,-162"/>
<path fill="none" stroke="#000000" d="M829.093,-162C825.0796,-130.2527 832.397,-121.829 829.093,-90"/>
</g>
<!-- etcd&#45;&gt;syncer -->
<g id="edge20" class="edge">
<title>etcd&#45;&gt;syncer</title>
<path fill="none" stroke="#000000" d="M658.9833,-410.7985C629.5534,-404.8272 583.1468,-391.0671 556.093,-361 511.1323,-311.0315 553.7299,-269.5441 513.093,-216 505.3992,-205.8624 479.0306,-189.9843 457.4982,-178.0648"/>
<polygon fill="#20b684" stroke="#000000" points="459.0891,-174.9458 448.6346,-173.2272 455.7355,-181.0902 459.0891,-174.9458"/>
</g>
<!-- git -->
<g id="node27" class="node">
<title>git</title>
<polygon fill="#1da58e" stroke="#000000" points="452.093,-252 449.093,-256 428.093,-256 425.093,-252 398.093,-252 398.093,-216 452.093,-216 452.093,-252"/>
<text text-anchor="middle" x="425.093" y="-231.5" font-family="Helvetica,sans-Serif" font-size="10.00" fill="#ffffff">git</text>
</g>
<!-- git&#45;&gt;syncer -->
<g id="edge21" class="edge">
<title>git&#45;&gt;syncer</title>
<path fill="none" stroke="#000000" d="M425.5977,-215.8314C425.8116,-208.131 426.066,-198.9743 426.3037,-190.4166"/>
<polygon fill="#1da58e" stroke="#000000" points="429.8024,-190.5066 426.5816,-180.4133 422.8051,-190.3122 429.8024,-190.5066"/>
</g>
<!-- gitdb&#45;&gt;git -->
<g id="edge22" class="edge">
<title>gitdb&#45;&gt;git</title>
<path fill="none" stroke="#000000" d="M425.093,-396.9833C425.093,-365.4877 425.093,-300.1909 425.093,-262.5061"/>
<polygon fill="#05dbdb" stroke="#000000" points="428.5931,-262.2124 425.093,-252.2125 421.5931,-262.2125 428.5931,-262.2124"/>
</g>
<!-- github&#45;&gt;syncer -->
<g id="edge23" class="edge">
<title>github&#45;&gt;syncer</title>
<path fill="none" stroke="#000000" d="M564.7877,-221.8972C560.2233,-219.9072 555.5305,-217.8814 551.093,-216 512.188,-199.5052 501.5739,-197.4614 463.093,-180 461.3272,-179.1987 459.5212,-178.3597 457.7045,-177.5004"/>
<polygon fill="#499bac" stroke="#000000" points="459.1929,-174.3324 448.668,-173.1176 456.1381,-180.6307 459.1929,-174.3324"/>
</g>
<!-- idna -->
<g id="node30" class="node">
<title>idna</title>
<polygon fill="#4c91b3" stroke="#000000" points="482.093,-1048 479.093,-1052 458.093,-1052 455.093,-1048 428.093,-1048 428.093,-1012 482.093,-1012 482.093,-1048"/>
<text text-anchor="middle" x="455.093" y="-1027.5" font-family="Helvetica,sans-Serif" font-size="10.00" fill="#000000">idna</text>
</g>
<!-- idna&#45;&gt;idna_ssl -->
<g id="edge26" class="edge">
<title>idna&#45;&gt;idna_ssl</title>
<path fill="none" stroke="#000000" d="M455.093,-1011.8314C455.093,-1004.131 455.093,-994.9743 455.093,-986.4166"/>
<polygon fill="#4c91b3" stroke="#000000" points="458.5931,-986.4132 455.093,-976.4133 451.5931,-986.4133 458.5931,-986.4132"/>
</g>
<!-- idna&#45;&gt;cryptography -->
<g id="edge24" class="edge">
<title>idna&#45;&gt;cryptography</title>
<path fill="none" stroke="#000000" d="M586.093,-903.5C583.831,-895.2903 583.1595,-886.1171 583.2397,-877.6724"/>
<polygon fill="#4c91b3" stroke="#000000" points="586.7445,-877.635 583.6802,-867.493 579.751,-877.3323 586.7445,-877.635"/>
</g>
<!-- idna&#45;&gt;dns -->
<g id="edge25" class="edge">
<title>idna&#45;&gt;dns</title>
<path fill="none" stroke="#000000" d="M521.093,-849C517.5007,-834.39 520.7554,-818.0751 525.3431,-804.6747"/>
<polygon fill="#4c91b3" stroke="#000000" points="528.7127,-805.6623 529.0199,-795.0719 522.1755,-803.1592 528.7127,-805.6623"/>
</g>
<!-- idna&#45;&gt;requests -->
<g id="edge27" class="edge">
<title>idna&#45;&gt;requests</title>
<path fill="none" stroke="#000000" d="M482.2339,-1023.8931C507.8299,-1016.7271 545.4113,-1002.3281 567.093,-976 588.2686,-950.2866 594.9413,-935.6137 586.093,-903.5"/>
<path fill="none" stroke="#000000" d="M586.093,-903.5C579.0831,-866.4575 532.9732,-884.7791 521.093,-849"/>
<path fill="none" stroke="#000000" d="M521.093,-849C509.6908,-814.6602 486.6994,-813.0032 483.093,-777"/>
</g>
<!-- idna&#45;&gt;urllib3 -->
<g id="edge28" class="edge">
<title>idna&#45;&gt;urllib3</title>
<path fill="none" stroke="#000000" d="M521.093,-849C519.7235,-843.4299 666.1575,-709.9279 669.093,-705"/>
<path fill="none" stroke="#000000" d="M669.093,-705C671.7726,-701.4829 726.0227,-654.79 727.093,-650.5"/>
<path fill="none" stroke="#000000" d="M727.093,-650.5C732.2836,-629.6957 733.9512,-605.4766 734.3655,-587.1833"/>
<polygon fill="#4c91b3" stroke="#000000" points="737.8654,-587.2078 734.4818,-577.1678 730.8659,-587.1265 737.8654,-587.2078"/>
</g>
<!-- yarl -->
<g id="node36" class="node">
<title>yarl</title>
<polygon fill="#e5052b" stroke="#000000" points="334.093,-976 331.093,-980 310.093,-980 307.093,-976 280.093,-976 280.093,-940 334.093,-940 334.093,-976"/>
<text text-anchor="middle" x="307.093" y="-955.5" font-family="Helvetica,sans-Serif" font-size="10.00" fill="#ffffff">yarl</text>
</g>
<!-- idna&#45;&gt;yarl -->
<g id="edge29" class="edge">
<title>idna&#45;&gt;yarl</title>
<path fill="none" stroke="#000000" d="M427.8817,-1017.0149C407.0317,-1007.0357 377.341,-992.7621 343.3975,-976.1216"/>
<polygon fill="#4c91b3" stroke="#000000" points="344.7181,-972.8709 334.1991,-971.6052 341.6329,-979.1544 344.7181,-972.8709"/>
</g>
<!-- jwt -->
<g id="node31" class="node">
<title>jwt</title>
<polygon fill="#4666a4" stroke="#000000" points="713.093,-361 710.093,-365 689.093,-365 686.093,-361 659.093,-361 659.093,-325 713.093,-325 713.093,-361"/>
<text text-anchor="middle" x="686.093" y="-340.5" font-family="Helvetica,sans-Serif" font-size="10.00" fill="#ffffff">jwt</text>
</g>
<!-- jwt&#45;&gt;github -->
<g id="edge31" class="edge">
<title>jwt&#45;&gt;github</title>
<path fill="none" stroke="#000000" d="M689.8206,-324.9884C691.2234,-313.9476 691.3889,-299.8112 686.093,-288.5"/>
</g>
<!-- multidict -->
<g id="node32" class="node">
<title>multidict</title>
<polygon fill="#475cc2" stroke="#000000" points="242.093,-1048 239.093,-1052 218.093,-1052 215.093,-1048 188.093,-1048 188.093,-1012 242.093,-1012 242.093,-1048"/>
<text text-anchor="middle" x="215.093" y="-1027.5" font-family="Helvetica,sans-Serif" font-size="10.00" fill="#ffffff">multidict</text>
</g>
<!-- multidict&#45;&gt;aiohttp -->
<g id="edge32" class="edge">
<title>multidict&#45;&gt;aiohttp</title>
<path fill="none" stroke="#000000" d="M188.0169,-1018.2385C171.1649,-1009.3174 150.8926,-995.2824 141.093,-976 133.844,-961.7363 133.0105,-953.8084 141.093,-940 157.83,-911.4063 198.6295,-935.7804 206.093,-903.5"/>
</g>
<!-- multidict&#45;&gt;yarl -->
<g id="edge33" class="edge">
<title>multidict&#45;&gt;yarl</title>
<path fill="none" stroke="#000000" d="M238.3085,-1011.8314C249.6401,-1002.9632 263.4394,-992.1637 275.6957,-982.5718"/>
<polygon fill="#475cc2" stroke="#000000" points="278.167,-985.0822 283.885,-976.1628 273.8528,-979.5697 278.167,-985.0822"/>
</g>
<!-- pkgresources&#45;&gt;pytz -->
<g id="edge35" class="edge">
<title>pkgresources&#45;&gt;pytz</title>
<path fill="none" stroke="#000000" d="M897.1586,-396.8314C900.2661,-388.8406 903.9834,-379.2819 907.4175,-370.4514"/>
<polygon fill="#2020b6" stroke="#000000" points="910.7642,-371.502 911.1267,-360.9134 904.2402,-368.9649 910.7642,-371.502"/>
</g>
<!-- pkgresources&#45;&gt;apscheduler -->
<g id="edge34" class="edge">
<title>pkgresources&#45;&gt;apscheduler</title>
<path fill="none" stroke="#000000" d="M883.6461,-396.6701C878.1439,-377.9392 872.5087,-348.3662 882.093,-325 890.7399,-303.9194 924.923,-310.2373 918.093,-288.5"/>
<path fill="none" stroke="#000000" d="M918.093,-288.5C914.4422,-278.5973 908.5466,-268.8111 902.4773,-260.3232"/>
<polygon fill="#2020b6" stroke="#000000" points="905.2466,-258.1824 896.4268,-252.3118 899.6606,-262.4011 905.2466,-258.1824"/>
</g>
<!-- requests&#45;&gt;syncer -->
<g id="edge39" class="edge">
<title>requests&#45;&gt;syncer</title>
<path fill="none" stroke="#000000" d="M485.8064,-324.8383C488.5141,-313.872 492.8186,-299.8673 499.093,-288.5"/>
<path fill="none" stroke="#000000" d="M499.093,-288.5C510.7983,-267.2938 504.6582,-257.5743 499.093,-234"/>
<path fill="none" stroke="#000000" d="M499.093,-234C493.5783,-210.6391 473.6585,-191.8043 456.1659,-179.2661"/>
<polygon fill="#4312a5" stroke="#000000" points="458.0881,-176.3408 447.8473,-173.6246 454.1591,-182.1342 458.0881,-176.3408"/>
</g>
<!-- requests&#45;&gt;docker -->
<g id="edge37" class="edge">
<title>requests&#45;&gt;docker</title>
<path fill="none" stroke="#000000" d="M499.093,-234C495.7392,-219.7928 495.4452,-203.5646 496.1174,-190.1158"/>
<polygon fill="#4312a5" stroke="#000000" points="499.6173,-190.2374 496.8236,-180.0176 492.6344,-189.749 499.6173,-190.2374"/>
</g>
<!-- requests&#45;&gt;github -->
<g id="edge38" class="edge">
<title>requests&#45;&gt;github</title>
<path fill="none" stroke="#000000" d="M499.093,-288.5C510.8817,-267.1428 534.7783,-253.4047 555.3955,-245.0641"/>
<polygon fill="#4312a5" stroke="#000000" points="556.7536,-248.2928 564.8831,-241.4987 554.2911,-241.7402 556.7536,-248.2928"/>
</g>
<!-- urllib3&#45;&gt;etcd -->
<g id="edge51" class="edge">
<title>urllib3&#45;&gt;etcd</title>
<path fill="none" stroke="#000000" d="M741.093,-487C735.2054,-469.7398 723.37,-453.346 712.1817,-440.5738"/>
<polygon fill="#8f3d58" stroke="#000000" points="714.69,-438.1304 705.3579,-433.1141 709.5249,-442.855 714.69,-438.1304"/>
</g>
<!-- urllib3&#45;&gt;github -->
<g id="edge52" class="edge">
<title>urllib3&#45;&gt;github</title>
<path fill="none" stroke="#000000" d="M741.093,-487C717.689,-418.3883 753.4702,-390.3512 722.093,-325 712.231,-304.4598 695.7544,-309.1354 686.093,-288.5"/>
</g>
<!-- urllib3&#45;&gt;requests -->
<g id="edge53" class="edge">
<title>urllib3&#45;&gt;requests</title>
<path fill="none" stroke="#000000" d="M739.9834,-540.7618C743.8166,-525.9076 747.0938,-504.5919 741.093,-487"/>
<path fill="none" stroke="#000000" d="M741.093,-487C717.4775,-417.7683 628.7256,-478.883 593.093,-415"/>
</g>
<!-- yarl&#45;&gt;aiohttp -->
<g id="edge54" class="edge">
<title>yarl&#45;&gt;aiohttp</title>
<path fill="none" stroke="#000000" d="M279.8626,-944.1054C249.7872,-928.6451 205.619,-905.5504 206.093,-903.5"/>
</g>
</g>
</svg>
